PathFileType   4   (X/Y/Z)																																																																																																																							
DataRate	CameraRate	NumFrames	NumMarkers	Units	OrigDataRate	OrigDataStartFrame	OrigNumFrames																																																																																																																
120	120	8	37	mm	120	63	125																																																																																																																
Frame#	Time	Sternum	R.Acromium	L.Acromium	Top.Head	R.ASIS	L.ASIS	V.Sacral	R.Thigh.Upper	R.Thigh.Front	R.Thigh.Rear	R.Knee.Lat	R.Knee.Med	R.Shank.Upper	R.Shank.Front	R.Shank.Rear	R.Ankle.Lat	R.Ankle.Med	R.Heel	R.Midfoot.Sup	R.Midfoot.Lat	R.Toe.Lat	R.Toe.Med	R.Toe.Tip	L.Thigh.Upper	L.Thigh.Front	L.Thigh.Rear	L.Knee.Lat	L.Knee.Med	L.Shank.Upper	L.Shank.Front	L.Shank.Rear	L.Ankle.Lat	L.Ankle.Med	L.Heel	L.Midfoot.Sup	L.Midfoot.Lat	L.Toe.Lat	L.Toe.Med	L.Toe.Tip																																																																															
 	 	X1	Y1	Z1	X2	Y2	Z2	X3	Y3	Z3	X4	Y4	Z4	X5	Y5	Z5	X6	Y6	Z6	X7	Y7	Z7	X8	Y8	Z8	X9	Y9	Z9	X10	Y10	Z10	X11	Y11	Z11	X12	Y12	Z12	X13	Y13	Z13	X14	Y14	Z14	X15	Y15	Z15	X16	Y16	Z16	X17	Y17	Z17	X18	Y18	Z18	X19	Y19	Z19	X20	Y20	Z20	X21	Y21	Z21	X22	Y22	Z22	X23	Y23	Z23	X24	Y24	Z24	X25	Y25	Z25	X26	Y26	Z26	X27	Y27	Z27	X28	Y28	Z28	X29	Y29	Z29	X30	Y30	Z30	X31	Y31	Z31	X32	Y32	Z32	X33	Y33	Z33	X34	Y34	Z34	X35	Y35	Z35	X36	Y36	Z36	X37	Y37	Z37	X38	Y38	Z38	X39	Y39	Z39	
																																																																																																																							
	63	0.66667	1920.76737	-0.001002095	1330.078999	1841.959611	-161.9453511	1391.965962	1844.706938	165.1979949	1391.84147	1933.527135	-10.08809499	1621.978766	1963.015479	-117.7896216	965.8546658	1969.274091	119.399185	958.9390254	1786.825105	-5.611229398	954.4737397	2042.339793	-173.4115572	671.2027682	2128.908355	-67.95180237	636.9929125	2088.931228	-162.9734513	545.2350557	2089.698064	-142.5943975	440.903579	2095.830464	-8.355853302	423.3765575	2056.552621	-154.6508593	399.4942168	2143.968503	-93.81404015	369.1557838	2084.089167	-165.0122006	306.6481656	2119.752612	-136.9768135	-10.27386658	2126.714508	-37.22329306	6.760644027	2049.402753	-79.10633289	-38.65069764	2200.808179	-41.71858376	-21.5616497	2195.934677	-155.3841374	-42.66087797	2291.587167	-165.0174344	-64.89808478	2293.595229	-50.15543807	-50.97587584	2358.089908	-83.79364801	-48.33055708	1871.017749	178.8034865	634.1059277	1944.322256	95.03600439	568.88731	1831.995734	161.7547942	519.7464495	1769.4963	144.5366564	386.923041	1771.000027	15.87918741	387.3674746	1734.473904	162.4477689	374.0799733	1735.860444	100.5194763	299.5945782	1688.554301	174.5177999	349.8710227	1475.706172	136.4325857	70.56032554	1496.037845	34.31683281	87.43776834	1399.056373	76.11439987	107.7349505	1542.460058	48.15109198	-5.279351662	1527.347878	152.6198727	7.004903865	1563.814617	163.716336	-54.3662997	1577.809232	55.50675189	-65.76974146	1618.802879	82.30973808	-97.95935153
	64	0.675	1930.737535	-0.001002095	1331.224766	1851.789284	-161.9453511	1392.932405	1854.536887	165.1979949	1392.81416	1942.833654	-10.08809499	1623.152787	1973.793801	-117.7896216	967.0248566	1980.063766	119.399185	960.1195076	1797.622362	-5.611229398	955.3544901	2052.659746	-173.4115572	671.7534232	2139.119221	-67.95180237	637.2687991	2098.850873	-162.9734513	545.638372	2099.28635	-142.5943975	441.3049861	2105.363054	-8.355853302	423.7585766	2065.080392	-154.6508593	400.3159462	2151.86658	-93.81404015	368.2205468	2090.738674	-165.0122006	306.9333829	2120.002694	-136.9768135	-10.64349442	2127.306751	-37.22329306	6.247132702	2049.271924	-79.10633289	-38.06786361	2200.901361	-41.71858376	-23.09615896	2195.733504	-155.3841374	-44.12522697	2291.065922	-165.0174344	-67.69686972	2293.268331	-50.15543807	-53.80407987	2357.793677	-83.79364801	-52.06024051	1884.746082	178.8034865	634.9817652	1958.826673	95.03600439	570.6460459	1847.096941	161.7547942	520.1629945	1786.19327	144.5366564	386.6003497	1787.691565	15.87918741	387.0627667	1749.63192	162.4477689	374.463052	1749.649609	100.5194763	299.9647548	1703.275246	174.5177999	351.1019288	1485.330913	136.4325857	75.74932013	1505.969265	34.31683281	92.25033345	1411.367173	76.11439987	117.9431145	1546.564649	48.15109198	-4.769932171	1532.343305	152.6198727	8.535490497	1564.45399	163.716336	-55.22305026	1577.621728	55.50675189	-67.57207577	1616.27766	82.30973808	-102.5344701
	65	0.68333	1940.627707	-0.001002095	1332.530272	1861.547797	-161.9453511	1394.069097	1864.295646	165.1979949	1393.956722	1952.100091	-10.08809499	1624.48347	1984.450005	-117.7896216	968.3789158	1990.732059	119.399185	961.4845623	1808.299283	-5.611229398	956.3999152	2062.598257	-173.4115572	672.2705899	2148.900146	-67.95180237	637.3934619	2108.215857	-162.9734513	545.9469545	2108.177253	-142.5943975	441.6126669	2114.174166	-8.355853302	424.0388268	2072.983822	-154.6508593	401.0660099	2159.13602	-93.81404015	367.3057418	2096.839537	-165.0122006	307.206778	2119.984107	-136.9768135	-10.87463407	2127.611991	-37.22329306	5.872244038	2048.98669	-79.10633289	-37.61823184	2200.76215	-41.71858376	-24.20749112	2195.37819	-155.3841374	-45.18227193	2290.463025	-165.0174344	-69.73357739	2292.808264	-50.15543807	-55.86418438	2357.348138	-83.79364801	-54.78436249	1898.781939	178.8034865	636.0494681	1973.741418	95.03600439	572.7399484	1862.717437	161.7547942	520.72315	1803.658717	144.5366564	386.3345169	1805.150502	15.87918741	386.8175217	1765.523916	162.4477689	374.8861741	1764.223316	100.5194763	300.3992288	1718.761114	174.5177999	352.3490149	1495.978394	136.4325857	80.896162	1516.905509	34.31683281	97.02938493	1425.039004	76.11439987	127.9101697	1551.37305	48.15109198	-3.910003351	1538.111681	152.6198727	10.35243028	1565.709528	163.716336	-55.48529825	1577.986369	55.50675189	-68.72036226	1614.116675	82.30973808	-106.2869847
	66	0.69167	1950.430582	-0.001002095	1333.977224	1871.228368	-161.9453511	1395.35856	1873.976435	165.1979949	1395.251654	1961.321964	-10.08809499	1625.952674	1994.970376	-117.7896216	969.8875046	2001.264565	119.399185	963.0042291	1818.84103	-5.611229398	957.5981927	2072.116597	-173.4115572	672.7266923	2158.208593	-67.95180237	637.3346254	2116.978736	-162.9734513	546.1327948	2116.316847	-142.5943975	441.8005996	2122.208667	-8.355853302	424.191248	2080.22094	-154.6508593	401.7133713	2165.746177	-93.81404015	366.394953	2102.369126	-165.0122006	307.4366064	2119.736524	-136.9768135	-11.01249361	2127.667117	-37.22329306	5.593175233	2048.568674	-79.10633289	-37.32287492	2200.433662	-41.71858376	-24.96716391	2194.904076	-155.3841374	-45.90402449	2289.816005	-165.0174344	-71.11549307	2292.257568	-50.15543807	-57.26273229	2356.803387	-83.79364801	-56.63143181	1913.074538	178.8034865	637.3052424	1989.002718	95.03600439	575.1608112	1878.795229	161.7547942	521.4357603	1821.818808	144.5366564	386.1511546	1823.302956	15.87918741	386.6571383	1782.088462	162.4477689	375.3634119	1779.529681	100.5194763	300.9090686	1734.951596	174.5177999	353.6194696	1507.614804	136.4325857	85.96899881	1528.811483	34.31683281	101.7463812	1439.925863	76.11439987	137.4566406	1557.056013	48.15109198	-2.605407485	1544.789538	152.6198727	12.5212078	1567.87176	163.716336	-55.03216843	1579.225441	55.50675189	-69.06718501	1612.732493	82.30973808	-108.991207
	67	0.7	1960.142579	-0.001002095	1335.546163	1880.827855	-161.9453511	1396.782047	1883.576113	165.1979949	1396.680184	1970.498123	-10.08809499	1627.541108	2005.34541	-117.7896216	971.5198943	2011.651094	119.399185	964.6471469	1829.236847	-5.611229398	958.9362619	2081.188445	-173.4115572	673.1014694	2167.015508	-67.95180237	637.0716866	2125.110188	-162.9734513	546.1782373	2123.674309	-142.5943975	441.8538235	2129.435329	-8.355853302	424.2012469	2086.7688	-154.6508593	402.2377498	2171.684222	-93.81404015	365.4773365	2107.318693	-165.0122006	307.5997424	2119.295582	-136.9768135	-11.09762188	2127.506	-37.22329306	5.371487673	2048.035644	-79.10633289	-37.18760847	2199.949741	-41.71858376	-25.45110092	2194.334849	-155.3841374	-46.36524532	2289.14321	-165.0174344	-71.96342736	2291.641226	-50.15543807	-58.1207351	2356.189082	-83.79364801	-57.75257075	1927.566621	178.8034865	638.7443534	2004.537449	95.03600439	577.8960965	1895.256624	161.7547942	522.3103721	1840.581928	144.5366564	386.0792638	1842.057285	15.87918741	386.6103362	1799.248862	162.4477689	375.9120887	1795.501776	100.5194763	301.5080839	1751.77087	174.5177999	354.9234371	1520.190127	136.4325857	90.93640903	1541.635984	34.31683281	106.373385	1455.826311	76.11439987	146.4255755	1563.805366	48.15109198	-0.806801386	1552.526427	152.6198727	15.06979819	1571.262709	163.716336	-53.81560901	1581.700175	55.50675189	-68.54473175	1612.598509	82.30973808	-110.5202372
	68	0.70833	1969.764016	-0.001002095	1337.217199	1890.346985	-161.9453511	1398.320342	1893.09541	165.1979949	1398.223076	1979.631182	-10.08809499	1629.229055	2015.570013	-117.7896216	973.2459272	2021.885926	119.399185	966.3825789	1839.480387	-5.611229398	960.4000213	2089.800109	-173.4115572	673.3820773	2175.30544	-67.95180237	636.5952794	2132.598564	-162.9734513	546.0756807	2130.240865	-142.5943975	441.7680285	2135.845671	-8.355853302	424.0652331	2092.62277	-154.6508593	402.6294951	2176.954021	-93.81404015	364.5480431	2111.692874	-165.0122006	307.6822376	2118.693482	-136.9768135	-11.16325368	2127.159981	-37.22329306	5.175685789	2047.402828	-79.10633289	-37.20489016	2199.33713	-41.71858376	-25.73290893	2193.685831	-155.3841374	-46.63724514	2288.449478	-165.0174344	-72.40046601	2290.971593	-50.15543807	-58.56214421	2355.519992	-83.79364801	-58.30636931	1942.197171	178.8034865	640.3609705	2020.266705	95.03600439	580.928936	1912.01953	161.7547942	523.3561935	1859.842567	144.5366564	386.1490445	1861.307976	15.87918741	386.7069794	1816.916732	162.4477689	376.5507168	1812.061439	100.5194763	302.2108034	1769.131279	174.5177999	356.2718195	1533.642824	136.4325857	95.76466129	1555.316312	34.31683281	110.8803793	1472.501974	76.11439987	154.690957	1571.81664	48.15109198	1.480492829	1561.471406	152.6198727	17.98070607	1576.206717	163.716336	-51.86997931	1585.778004	55.50675189	-67.17612902	1614.205957	82.30973808	-110.8625292
	69	0.71667	1979.299025	-0.001002095	1338.970418	1899.79035	-161.9453511	1399.954266	1902.538918	165.1979949	1399.861126	1988.727787	-10.08809499	1630.996759	2025.643247	-117.7896216	975.0374869	2031.967624	119.399185	968.1819367	1849.569605	-5.611229398	961.9743201	2097.950037	-173.4115572	673.5625418	2183.075946	-67.95180237	635.9060712	2139.448593	-162.9734513	545.8265005	2136.027774	-142.5943975	441.5483002	2141.451839	-8.355853302	423.7892929	2097.794987	-154.6508593	402.8886016	2181.574342	-93.81404015	363.6078612	2115.508525	-165.0122006	307.6789323	2117.959413	-136.9768135	-11.23398521	2126.65816	-37.22329306	4.982498696	2046.68372	-79.10633289	-37.35670951	2198.617582	-41.71858376	-25.87890258	2192.967085	-155.3841374	-46.78345547	2287.731719	-165.0174344	-72.54304273	2290.253303	-50.15543807	-58.70462424	2354.801693	-83.79364801	-58.44637432	1956.904197	178.8034865	642.1477135	2036.109569	95.03600439	584.2380604	1928.997152	161.7547942	524.5806913	1879.485978	144.5366564	386.3892267	1880.940313	15.87918741	386.975424	1834.996187	162.4477689	377.2965738	1829.123696	100.5194763	303.0300912	1786.93761	174.5177999	357.6737208	1547.905089	136.4325857	100.4146188	1569.783469	34.31683281	115.2322279	1489.701795	76.11439987	162.1594038	1581.268968	48.15109198	4.196427242	1571.757677	152.6198727	21.19102162	1582.998647	163.716336	-49.30641251	1591.796372	55.50675189	-65.06990777	1618.015072	82.30973808	-110.116882
	70	0.725	1988.755222	-0.001002095	1340.786037	1909.166142	-161.9453511	1401.664911	1911.914831	165.1979949	1401.575398	1997.798615	-10.08809499	1632.824566	2035.567763	-117.7896216	976.8693887	2041.898498	119.399185	970.0197094	1859.506318	-5.611229398	963.6428601	2105.647807	-173.4115572	673.6427899	2190.336529	-67.95180237	635.0131321	2145.679605	-162.9734513	545.4395079	2141.063839	-142.5943975	441.2073643	2146.284004	-8.355853302	423.3873562	2102.312344	-154.6508593	403.0231754	2185.576727	-93.81404015	362.662309	2118.793177	-165.0122006	307.592401	2117.119771	-136.9768135	-11.32554385	2126.027497	-37.22329306	4.777094381	2045.89056	-79.10633289	-37.61785255	2197.809551	-41.71858376	-25.94486824	2192.185914	-155.3841374	-46.85666298	2286.983563	-165.0174344	-72.49448648	2289.487367	-50.15543807	-58.65283996	2354.035372	-83.79364801	-58.31166604	1971.627361	178.8034865	644.0950611	2051.986785	95.03600439	587.7977978	1946.101783	161.7547942	525.9881064	1899.393262	144.5366564	386.8243494	1900.835454	15.87918741	387.4398159	1853.388248	162.4477689	378.1632209	1846.60132	100.5194763	303.9747165	1805.091585	174.5177999	359.1338863	1562.90805	136.4325857	104.838926	1584.967306	34.31683281	119.3858929	1507.187835	76.11439987	168.7650709	1592.306303	48.15109198	7.235830423	1583.488525	152.6198727	24.60038298	1591.875625	163.716336	-46.29322866	1600.030096	55.50675189	-62.39889096	1624.409705	82.30973808	-108.4671532
